<svg xmlns="http://www.w3.org/2000/svg" viewBox="0 0 200.9 269.72"><defs><style>.cls-1{fill:#fffaf3;}</style></defs><g id="Layer_2" data-name="Layer 2"><g id="Layer_1-2" data-name="Layer 1"><path class="cls-1" d="M200.64,226.07c2.86,16-18.87,24-29.87,11.56-6.45-9.84-10-28.92,4.42-32.73,7.2-1.91,13.95,3.23,19,6.94A24,24,0,0,1,200.64,226.07Z"/><path class="cls-1" d="M48.05,119.64c-4.74,7.41-14.45,11.48-16.45,4.1-4.29-7.41,3-11.66,10.61-12.48C47.36,111.77,49.88,115.47,48.05,119.64Z"/><path class="cls-1" d="M153.23,139.39c-4.64,8.49-16.38,7.75-20.64.41-8.5-14.68,11.18-27.59,22.81-20C159.7,125,158.88,133.86,153.23,139.39Z"/><path class="cls-1" d="M10.45,3.32c8.08-7.13,20.1-1.9,21.76,7.4C35.54,29.33,10,35.37.72,23.05-1.78,15.92,2.44,7,10.45,3.32Z"/><path class="cls-1" d="M170.31,46.69c-2.19,5.42-4.84,10-9.54,9.67-9.39-.59-8.36-17,1.53-18.86A8.45,8.45,0,0,1,170.31,46.69Z"/><path class="cls-1" d="M111.25,261.67a9.44,9.44,0,0,1-9.68,8.05c-4.84-.16-8.35-4-7.82-8.55s4.88-8.12,9.7-8A7.68,7.68,0,0,1,111.25,261.67Z"/></g></g></svg>