<svg xmlns="http://www.w3.org/2000/svg" viewBox="0 0 229.76 389.46"><defs><style>.cls-1{fill:#91d3ca;}</style></defs><g id="Layer_2" data-name="Layer 2"><g id="Layer_1-2" data-name="Layer 1"><path class="cls-1" d="M86.38,38.17c.6,24.9-34.24,32-48,10.52C30.91,32.26,30.06,2.5,52.77.1c11.35-1.2,20.38,8.18,27.13,15A36.8,36.8,0,0,1,86.38,38.17Z"/><path class="cls-1" d="M27,149.13c-8.93,10.11-24.6,14-25.92,2.36-4.76-12.25,7.37-17,19-16.44C27.77,137,30.72,143.24,27,149.13Z"/><path class="cls-1" d="M142.13,194.5c-9,11.8-26.65,7.92-31.38-4.21-9.45-24.26,23.41-39.21,39.28-25C155.32,174.22,152,187.45,142.13,194.5Z"/><path class="cls-1" d="M134,285.48c13.93-8.92,30.91,1.83,31.26,16.33.68,29-39.4,32.16-50.64,11.29C112.49,301.71,121,289.12,134,285.48Z"/><path class="cls-1" d="M229.44,67.22c-4.6,7.69-9.68,14-16.73,12.42-14.1-3.1-8.67-27.78,6.74-28.23C226.48,52.61,231,59.77,229.44,67.22Z"/><path class="cls-1" d="M89.46,379.28c-1.85,6.84-9.25,11.3-16.56,9.93s-11.72-8-9.85-14.79,9.31-11.17,16.58-9.86S91.31,372.44,89.46,379.28Z"/></g></g></svg>