<svg xmlns="http://www.w3.org/2000/svg" viewBox="0 0 263.86 151.22"><defs><style>.cls-1{fill:#91d3ca;}</style></defs><g id="Layer_2" data-name="Layer 2"><g id="Layer_1-2" data-name="Layer 1"><path class="cls-1" d="M24,99.3c16.91-2,24,21.26,10.23,32-10.71,6.14-30.91,8.62-34-6.68-1.54-7.65,4.27-14.4,8.47-19.43A25.18,25.18,0,0,1,24,99.3Z"/><path class="cls-1" d="M103.34,132.65c7.45,5.43,11.11,15.85,3.26,17.49-8,4-12-3.93-12.41-11.9C95.05,132.88,99.08,130.48,103.34,132.65Z"/><path class="cls-1" d="M126.87,51.37C135.47,56.76,134,69,126,73c-15.91,8-28.18-13.43-19.55-25.14C112.22,43.69,121.43,45.11,126.87,51.37Z"/><path class="cls-1" d="M189.31,51.1c-7-8.91-.72-21.16,9.12-22.32,19.69-2.31,24.41,24.77,10.92,33.75C201.73,64.7,192.62,59.72,189.31,51.1Z"/><path class="cls-1" d="M34.66.07c5.53,2.64,10.13,5.69,9.52,10.59C43,20.46,25.82,18.34,24.53,7.88,24.9,3,29.48-.54,34.66.07Z"/><path class="cls-1" d="M256,75.43a9.89,9.89,0,0,1,7.82,10.63c-.47,5.07-4.71,8.5-9.44,7.65s-8.2-5.62-7.77-10.65S251.23,74.61,256,75.43Z"/></g></g></svg>